<?xml version="1.0" encoding="UTF-8" standalone="no"?>
<!-- Created with Inkscape (http://www.inkscape.org/) -->

<svg
   version="1.1"
   id="svg132"
   width="264.98584"
   height="336.75494"
   viewBox="0 0 264.98584 336.75494"
   sodipodi:docname="properties-3.svg"
   inkscape:version="1.2.2 (b0a84865, 2022-12-01)"
   inkscape:export-filename="properties-3.pdf"
   inkscape:export-xdpi="1213.4"
   inkscape:export-ydpi="1213.4"
   xmlns:inkscape="http://www.inkscape.org/namespaces/inkscape"
   xmlns:sodipodi="http://sodipodi.sourceforge.net/DTD/sodipodi-0.dtd"
   xmlns="http://www.w3.org/2000/svg"
   xmlns:svg="http://www.w3.org/2000/svg">
  <defs
     id="defs136">
    <clipPath
       clipPathUnits="userSpaceOnUse"
       id="clipPath150">
      <path
         d="m 91.867,10.75 h 83 v 47 h -83 z"
         id="path148" />
    </clipPath>
    <clipPath
       clipPathUnits="userSpaceOnUse"
       id="clipPath160">
      <path
         d="M 0,0 H 199 V 253 H 0 Z"
         id="path158" />
    </clipPath>
    <clipPath
       clipPathUnits="userSpaceOnUse"
       id="clipPath194">
      <path
         d="m 81.867,174.75 h 5 v 6 h -5 z"
         id="path192" />
    </clipPath>
    <clipPath
       clipPathUnits="userSpaceOnUse"
       id="clipPath204">
      <path
         d="M 0,0 H 199 V 253 H 0 Z"
         id="path202" />
    </clipPath>
    <clipPath
       clipPathUnits="userSpaceOnUse"
       id="clipPath232">
      <path
         d="m 33.699,192.168 h 83 v 47 h -83 z"
         id="path230" />
    </clipPath>
    <clipPath
       clipPathUnits="userSpaceOnUse"
       id="clipPath242">
      <path
         d="M 0,0 H 199 V 253 H 0 Z"
         id="path240" />
    </clipPath>
    <clipPath
       clipPathUnits="userSpaceOnUse"
       id="clipPath362">
      <path
         d="M 0,117 H 177 V 252 H 0 Z"
         id="path360" />
    </clipPath>
  </defs>
  <sodipodi:namedview
     id="namedview134"
     pagecolor="#ffffff"
     bordercolor="#666666"
     borderopacity="1.0"
     inkscape:showpageshadow="2"
     inkscape:pageopacity="0.0"
     inkscape:pagecheckerboard="0"
     inkscape:deskcolor="#d1d1d1"
     showgrid="false"
     inkscape:zoom="0.99108982"
     inkscape:cx="176.5733"
     inkscape:cy="146.30359"
     inkscape:window-width="1440"
     inkscape:window-height="430"
     inkscape:window-x="0"
     inkscape:window-y="729"
     inkscape:window-maximized="0"
     inkscape:current-layer="g140">
    <inkscape:page
       x="0"
       y="0"
       id="page138"
       width="264.98584"
       height="336.75494" />
  </sodipodi:namedview>
  <g
     id="g140"
     inkscape:groupmode="layer"
     inkscape:label="Page 1"
     transform="matrix(1.3333333,0,0,1.3333333,0,1.108554e-5)">
    <g
       id="g142" />
    <g
       id="g144">
      <g
         id="g146"
         clip-path="url(#clipPath150)">
        <g
           id="g152">
          <g
             id="g154">
            <g
               id="g156"
               clip-path="url(#clipPath160)">
              <g
                 id="g162">
                <g
                   id="g164"
                   transform="scale(1,0.989824)">
                  <path
                     d="m 92.844,31.784 c 0,-11.346 9.195,-20.541 20.539,-20.541 h 41.238 c 11.344,0 20.535,9.195 20.535,20.541 v 5.427 c 0,11.342 -9.191,20.541 -20.535,20.541 h -41.238 c -11.344,0 -20.539,-9.199 -20.539,-20.541 z"
                     style="fill:#ffffff;fill-opacity:1;fill-rule:nonzero;stroke:#000000;stroke-width:0.766727;stroke-linecap:butt;stroke-linejoin:miter;stroke-miterlimit:8;stroke-dasharray:none;stroke-opacity:1"
                     id="path166" />
                </g>
                <g
                   id="g168">
                  <path
                     d="m 95.629,27.926 c 0,-3.516 2.844,-6.367 6.355,-6.367 3.512,0 6.36,2.851 6.36,6.367 0,3.512 -2.848,6.359 -6.36,6.359 -3.511,0 -6.355,-2.847 -6.355,-6.359 z"
                     style="fill:#ffffff;fill-opacity:1;fill-rule:evenodd;stroke:#88aa00;stroke-width:1;stroke-linecap:butt;stroke-linejoin:miter;stroke-miterlimit:4;stroke-dasharray:none;stroke-opacity:1"
                     id="path170" />
                </g>
                <g
                   id="g172">
                  <path
                     d="m 44.742,85.238 c 0,-3.515 2.84,-6.367 6.356,-6.367 3.511,0 6.359,2.852 6.359,6.367 0,3.512 -2.848,6.36 -6.359,6.36 -3.516,0 -6.356,-2.848 -6.356,-6.36 z"
                     style="fill:#ffffff;fill-opacity:1;fill-rule:evenodd;stroke:#88aa00;stroke-width:1;stroke-linecap:butt;stroke-linejoin:miter;stroke-miterlimit:4;stroke-dasharray:none;stroke-opacity:1"
                     id="path174" />
                </g>
                <text
                   xml:space="preserve"
                   transform="matrix(1,0,0,0.99983406,99.394316,30.328924)"
                   style="font-variant:normal;font-weight:normal;font-size:6.62272px;font-family:Verdana;-inkscape-font-specification:Verdana;writing-mode:lr-tb;fill:#000000;fill-opacity:1;fill-rule:nonzero;stroke:none"
                   id="text178"><tspan
                     x="0"
                     y="0"
                     id="tspan176">K</tspan></text>
                <g
                   id="g180">
                  <path
                     d="m 124.91,41.453 c 0,-3.515 2.844,-6.363 6.356,-6.363 3.511,0 6.359,2.848 6.359,6.363 0,3.512 -2.848,6.356 -6.359,6.356 -3.512,0 -6.356,-2.844 -6.356,-6.356 z"
                     style="fill:#ffffff;fill-opacity:1;fill-rule:evenodd;stroke:#000000;stroke-width:1;stroke-linecap:butt;stroke-linejoin:miter;stroke-miterlimit:4;stroke-dasharray:none;stroke-opacity:1"
                     id="path182" />
                </g>
                <text
                   xml:space="preserve"
                   transform="matrix(1,0,0,0.99983406,128.89725,43.856766)"
                   style="font-variant:normal;font-weight:normal;font-size:6.62272px;font-family:Verdana;-inkscape-font-specification:Verdana;writing-mode:lr-tb;fill:#000000;fill-opacity:1;fill-rule:nonzero;stroke:none"
                   id="text186"><tspan
                     x="0"
                     y="0"
                     id="tspan184">C</tspan></text>
              </g>
            </g>
          </g>
        </g>
      </g>
    </g>
    <g
       id="g188">
      <g
         id="g190"
         clip-path="url(#clipPath194)">
        <g
           id="g196">
          <g
             id="g198">
            <g
               id="g200"
               clip-path="url(#clipPath204)">
              <g
                 id="g206">
                <text
                   xml:space="preserve"
                   transform="translate(81.827676,179.33603)"
                   style="font-style:italic;font-variant:normal;font-size:7.99999px;font-family:Arial;-inkscape-font-specification:Arial-ItalicMT;writing-mode:lr-tb;fill:#000000;fill-opacity:1;fill-rule:nonzero;stroke:none"
                   id="text210"><tspan
                     x="0"
                     y="0"
                     id="tspan208">g</tspan></text>
              </g>
            </g>
          </g>
        </g>
      </g>
    </g>
    <g
       id="g212">
      <text
         xml:space="preserve"
         transform="translate(86.276889,179.33603)"
         style="font-style:italic;font-variant:normal;font-size:7.99999px;font-family:Arial;-inkscape-font-specification:Arial-ItalicMT;writing-mode:lr-tb;fill:#000000;fill-opacity:1;fill-rule:nonzero;stroke:none"
         id="text216"><tspan
           x="0"
           y="0"
           id="tspan214">3</tspan></text>
      <text
         xml:space="preserve"
         transform="translate(76.318357,55.927677)"
         style="font-style:italic;font-variant:normal;font-size:9px;font-family:Arial;-inkscape-font-specification:Arial-ItalicMT;writing-mode:lr-tb;fill:#000000;fill-opacity:1;fill-rule:nonzero;stroke:none"
         id="text224"><tspan
           x="0 7.0004883 9.9975586 15.00293"
           y="0"
           sodipodi:role="line"
           id="tspan218">Org1</tspan><tspan
           x="-61.27409 -54.273602 -51.276531 -46.27116"
           y="69.081223"
           sodipodi:role="line"
           id="tspan220">Org2</tspan><tspan
           x="-59.185062 -52.184574 -49.187504 -44.182133"
           y="184.35315"
           sodipodi:role="line"
           id="tspan222">Org4</tspan></text>
    </g>
    <g
       id="g226">
      <g
         id="g228"
         clip-path="url(#clipPath232)">
        <g
           id="g234">
          <g
             id="g236">
            <g
               id="g238"
               clip-path="url(#clipPath242)">
              <g
                 id="g244">
                <g
                   id="g246"
                   transform="scale(1,0.989824)">
                  <path
                     d="m 34.68,215.067 c 0,-11.345 9.195,-20.541 20.539,-20.541 h 41.238 c 11.344,0 20.531,9.196 20.531,20.541 v 5.427 c 0,11.342 -9.187,20.541 -20.531,20.541 H 55.219 c -11.344,0 -20.539,-9.199 -20.539,-20.541 z"
                     style="fill:#ffffff;fill-opacity:1;fill-rule:nonzero;stroke:#000000;stroke-width:0.766727;stroke-linecap:butt;stroke-linejoin:miter;stroke-miterlimit:8;stroke-dasharray:none;stroke-opacity:1"
                     id="path248" />
                </g>
                <text
                   xml:space="preserve"
                   transform="matrix(1,0,0,0.99983406,41.229345,211.749)"
                   style="font-variant:normal;font-weight:normal;font-size:6.62272px;font-family:Verdana;-inkscape-font-specification:Verdana;writing-mode:lr-tb;fill:#000000;fill-opacity:1;fill-rule:nonzero;stroke:none"
                   id="text252"><tspan
                     x="0"
                     y="0"
                     id="tspan250">P</tspan></text>
                <g
                   id="g254">
                  <path
                     d="m 66.742,222.871 c 0,-3.516 2.848,-6.363 6.356,-6.363 3.511,0 6.363,2.847 6.363,6.363 0,3.512 -2.852,6.356 -6.363,6.356 -3.508,0 -6.356,-2.844 -6.356,-6.356 z"
                     style="fill:#ffffff;fill-opacity:1;fill-rule:evenodd;stroke:#000000;stroke-width:1;stroke-linecap:butt;stroke-linejoin:miter;stroke-miterlimit:4;stroke-dasharray:none;stroke-opacity:1"
                     id="path256" />
                  <path
                     d="m 36.774836,209.63471 c 0,-3.516 2.848,-6.363 6.356,-6.363 3.511,0 6.363,2.847 6.363,6.363 0,3.512 -2.852,6.356 -6.363,6.356 -3.508,0 -6.356,-2.844 -6.356,-6.356 z"
                     style="fill:none;fill-opacity:1;fill-rule:evenodd;stroke:#000000;stroke-width:1;stroke-linecap:butt;stroke-linejoin:miter;stroke-miterlimit:4;stroke-dasharray:none;stroke-opacity:1"
                     id="path256-2" />
                  <path
                     d="m 93.530541,166.10852 c 0,-3.516 2.848,-6.363 6.356,-6.363 3.510999,0 6.362999,2.847 6.362999,6.363 0,3.512 -2.852,6.356 -6.362999,6.356 -3.508,0 -6.356,-2.844 -6.356,-6.356 z"
                     style="fill:none;fill-opacity:1;fill-rule:evenodd;stroke:#000000;stroke-width:1;stroke-linecap:butt;stroke-linejoin:miter;stroke-miterlimit:4;stroke-dasharray:none;stroke-opacity:1"
                     id="path256-2-5" />
                  <path
                     d="m -21.226202,166.10852 c 0,-3.516 2.848,-6.363 6.356,-6.363 3.511002,0 6.3630019,2.847 6.3630019,6.363 0,3.512 -2.8519999,6.356 -6.3630019,6.356 -3.508,0 -6.356,-2.844 -6.356,-6.356 z"
                     style="fill:none;fill-opacity:1;fill-rule:evenodd;stroke:#000000;stroke-width:1;stroke-linecap:butt;stroke-linejoin:miter;stroke-miterlimit:4;stroke-dasharray:none;stroke-opacity:1"
                     id="path256-2-3" />
                </g>
                <text
                   xml:space="preserve"
                   transform="matrix(1,0,0,0.99983406,70.73228,225.27684)"
                   style="font-variant:normal;font-weight:normal;font-size:6.62272px;font-family:Verdana;-inkscape-font-specification:Verdana;writing-mode:lr-tb;fill:#000000;fill-opacity:1;fill-rule:nonzero;stroke:none"
                   id="text260"><tspan
                     x="0"
                     y="0"
                     id="tspan258">T</tspan></text>
              </g>
            </g>
          </g>
        </g>
      </g>
    </g>
    <g
       id="g262">
      <g
         id="g264"
         transform="scale(1,0.989824)">
        <path
           d="m 28.562,96.762 c 0,-11.164 9.051,-20.217 20.219,-20.217 h 40.59 c 11.168,0 20.219,9.053 20.219,20.217 v 5.343 c 0,11.165 -9.051,20.218 -20.219,20.218 h -40.59 c -11.168,0 -20.219,-9.053 -20.219,-20.218 z"
           style="fill:#ffffff;fill-opacity:1;fill-rule:nonzero;stroke:#000000;stroke-width:0.754727;stroke-linecap:butt;stroke-linejoin:miter;stroke-miterlimit:8;stroke-dasharray:none;stroke-opacity:1"
           id="path266" />
      </g>
      <g
         id="g268">
        <path
           d="m 75.328,100.313 c 0,-3.508 2.844,-6.356 6.356,-6.356 3.511,0 6.359,2.848 6.359,6.356 0,3.519 -2.848,6.367 -6.359,6.367 -3.512,0 -6.356,-2.848 -6.356,-6.367 z"
           style="fill:#ffffff;fill-opacity:1;fill-rule:evenodd;stroke:#000000;stroke-width:1;stroke-linecap:butt;stroke-linejoin:miter;stroke-miterlimit:4;stroke-dasharray:none;stroke-opacity:1"
           id="path270" />
      </g>
      <g
         id="g272">
        <path
           d="m 88.758,88.918 c 0,-3.512 2.844,-6.359 6.355,-6.359 3.512,0 6.36,2.847 6.36,6.359 0,3.516 -2.848,6.363 -6.36,6.363 -3.511,0 -6.355,-2.847 -6.355,-6.363 z"
           style="fill:#ffffff;fill-opacity:1;fill-rule:evenodd;stroke:#000000;stroke-width:1;stroke-linecap:butt;stroke-linejoin:miter;stroke-miterlimit:4;stroke-dasharray:none;stroke-opacity:1"
           id="path274" />
      </g>
      <text
         xml:space="preserve"
         transform="matrix(1,0,0,0.99983406,79.646723,102.72224)"
         style="font-variant:normal;font-weight:normal;font-size:6.62272px;font-family:Verdana;-inkscape-font-specification:Verdana;writing-mode:lr-tb;fill:#000000;fill-opacity:1;fill-rule:nonzero;stroke:none"
         id="text278"><tspan
           x="0"
           y="0"
           id="tspan276">Y</tspan></text>
      <text
         xml:space="preserve"
         transform="scale(1.000083,0.99991703)"
         style="font-variant:normal;font-weight:normal;font-size:6.62217px;font-family:Verdana;-inkscape-font-specification:Verdana;writing-mode:lr-tb;fill:#000000;fill-opacity:1;fill-rule:nonzero;stroke:none;stroke-width:0.999917"
         id="text278-5"
         x="48.525463"
         y="88.565231"><tspan
           x="48.525463"
           y="88.565231"
           id="tspan276-5"
           style="stroke-width:0.999917">P</tspan></text>
      <g
         id="g282"
         transform="scale(1,0.999834)" />
      <text
         xml:space="preserve"
         transform="matrix(1,0,0,0.99983406,65.061247,114.27003)"
         style="font-variant:normal;font-weight:normal;font-size:6.62272px;font-family:Verdana;-inkscape-font-specification:Verdana;writing-mode:lr-tb;fill:#000000;fill-opacity:1;fill-rule:nonzero;stroke:none"
         id="text292"><tspan
           x="27.021154"
           y="-23.227343"
           id="tspan288">C</tspan></text>
      <g
         id="g294"
         transform="scale(1,0.989824)">
        <path
           d="m 80.523,149.932 c 0,-11.717 9.493,-21.212 21.207,-21.212 h 42.579 c 11.711,0 21.207,9.495 21.207,21.212 v 5.604 c 0,11.709 -9.496,21.208 -21.207,21.208 H 101.73 c -11.714,0 -21.207,-9.499 -21.207,-21.208 z"
           style="fill:#ffffff;fill-opacity:1;fill-rule:nonzero;stroke:#000000;stroke-width:0.791673;stroke-linecap:butt;stroke-linejoin:miter;stroke-miterlimit:8;stroke-dasharray:none;stroke-opacity:1"
           id="path296" />
      </g>
      <g
         id="g298">
        <path
           d="m 140.273,161.887 c 0,-3.512 2.844,-6.36 6.356,-6.36 3.512,0 6.359,2.848 6.359,6.36 0,3.515 -2.847,6.363 -6.359,6.363 -3.512,0 -6.356,-2.848 -6.356,-6.363 z"
           style="fill:#ffffff;fill-opacity:1;fill-rule:evenodd;stroke:#000000;stroke-width:1;stroke-linecap:butt;stroke-linejoin:miter;stroke-miterlimit:4;stroke-dasharray:none;stroke-opacity:1"
           id="path300" />
      </g>
      <text
         xml:space="preserve"
         transform="matrix(1,0,0,0.99983406,144.68418,164.55766)"
         style="font-variant:normal;font-weight:normal;font-size:6.62272px;font-family:Verdana;-inkscape-font-specification:Verdana;writing-mode:lr-tb;fill:#000000;fill-opacity:1;fill-rule:nonzero;stroke:none"
         id="text310"><tspan
           x="0"
           y="0"
           id="tspan302">T</tspan><tspan
           x="-32.391678"
           y="-11.405105"
           id="tspan304">Y</tspan><tspan
           x="-47.522049"
           y="2.837564"
           id="tspan306">A</tspan><tspan
           x="-15.786942"
           y="-25.186256"
           id="tspan308">C</tspan></text>
      <g
         id="g312">
        <path
           d="m 139.867,49.293 c 0,-3.512 2.844,-6.359 6.356,-6.359 3.511,0 6.359,2.847 6.359,6.359 0,3.516 -2.848,6.363 -6.359,6.363 -3.512,0 -6.356,-2.847 -6.356,-6.363 z"
           style="fill:#ffffff;fill-opacity:1;fill-rule:evenodd;stroke:#000000;stroke-width:1;stroke-linecap:butt;stroke-linejoin:miter;stroke-miterlimit:4;stroke-dasharray:none;stroke-opacity:1"
           id="path314" />
      </g>
      <text
         xml:space="preserve"
         transform="matrix(1,0,0,0.99983406,144.33609,51.673163)"
         style="font-variant:normal;font-weight:normal;font-size:6.62272px;font-family:Verdana;-inkscape-font-specification:Verdana;writing-mode:lr-tb;fill:#000000;fill-opacity:1;fill-rule:nonzero;stroke:none"
         id="text318"><tspan
           x="0"
           y="0"
           id="tspan316">Y</tspan></text>
      <g
         id="g320">
        <path
           d="m 99.426,82.965 c 0,0 27.117,-35.652 27.117,-35.652"
           style="fill:none;stroke:#000000;stroke-width:0.749999;stroke-linecap:butt;stroke-linejoin:miter;stroke-miterlimit:4;stroke-dasharray:2.99999, 2.99999;stroke-dashoffset:0;stroke-opacity:1"
           id="path322" />
      </g>
      <g
         id="g324">
        <path
           d="M 87.109,106.516 143.531,56.211"
           style="fill:none;stroke:#000000;stroke-width:0.749999;stroke-linecap:butt;stroke-linejoin:miter;stroke-miterlimit:4;stroke-dasharray:2.99999, 2.99999;stroke-dashoffset:0;stroke-opacity:1"
           id="path326" />
      </g>
      <g
         id="g328"
         transform="matrix(0.760603,-1,1,0.760603,0,0)">
        <path
           d="m -3.009,101.172 -1.79,1.791 1.791,1.79"
           style="fill:none;stroke:#000000;stroke-width:0.596947;stroke-linecap:butt;stroke-linejoin:miter;stroke-miterlimit:4;stroke-dasharray:none;stroke-opacity:1"
           id="path330" />
      </g>
      <g
         id="g332">
        <path
           d="m 80.508,217.313 62.875,-48.61"
           style="fill:none;stroke:#000000;stroke-width:0.749999;stroke-linecap:butt;stroke-linejoin:miter;stroke-miterlimit:4;stroke-dasharray:2.99999, 2.99999;stroke-dashoffset:0;stroke-opacity:1"
           id="path334" />
      </g>
      <g
         id="g336"
         transform="matrix(0.655339,1,-1,0.655339,0,0)">
        <path
           d="m 112.902,-29.695 -1.883,1.884 1.881,1.88"
           style="fill:none;stroke:#000000;stroke-width:0.627297;stroke-linecap:butt;stroke-linejoin:miter;stroke-miterlimit:4;stroke-dasharray:none;stroke-opacity:1"
           id="path338" />
      </g>
      <g
         id="g340"
         transform="matrix(0.655339,1,-1,0.655339,0,0)">
        <path
           d="m 114.4,-13.693 -1.883,1.883 1.881,1.881"
           style="fill:none;stroke:#000000;stroke-width:0.627297;stroke-linecap:butt;stroke-linejoin:miter;stroke-miterlimit:4;stroke-dasharray:none;stroke-opacity:1"
           id="path342" />
      </g>
      <g
         id="g344"
         transform="matrix(-1,0.908668,-0.908668,-1,0,0)">
        <path
           d="m 6.703,-165.589 -1.666,1.666 1.664,1.664"
           style="fill:none;stroke:#000000;stroke-width:0.555071;stroke-linecap:butt;stroke-linejoin:miter;stroke-miterlimit:4;stroke-dasharray:none;stroke-opacity:1"
           id="path346" />
      </g>
      <text
         xml:space="preserve"
         transform="translate(72.940969,179.33603)"
         style="font-style:italic;font-variant:normal;font-size:7.99999px;font-family:Arial;-inkscape-font-specification:Arial-ItalicMT;writing-mode:lr-tb;fill:#000000;fill-opacity:1;fill-rule:nonzero;stroke:none"
         id="text350"><tspan
           x="0 6.2226486"
           y="0"
           sodipodi:role="line"
           id="tspan348">Or</tspan></text>
      <g
         id="g352">
        <path
           d="M 85.695,17.48 C 53.129,38.328 18.734,82.16 9.906,106.129 1.082,130.102 17.82,134.211 39.051,133.523 60.281,132.84 86,127.359 107.23,116.555 128.461,105.75 145.203,89.617 157.758,73.258 170.316,56.898 178.684,40.309 181.652,28.211 184.621,16.109 182.188,8.5 165.598,3.629 c -16.59,-4.867 -47.332,-7 -79.903,13.851 z"
           style="fill:none;stroke:#1e1eb2;stroke-width:0.75;stroke-linecap:butt;stroke-linejoin:miter;stroke-miterlimit:4;stroke-dasharray:none;stroke-opacity:1"
           id="path354" />
      </g>
    </g>
    <g
       id="g356">
      <g
         id="g358"
         clip-path="url(#clipPath362)">
        <g
           id="g364">
          <path
             d="m 78.559,135.383 c -32.571,20.851 -66.965,64.683 -75.789,88.652 -8.829,23.969 7.914,28.078 31.351,28.156 23.438,0.075 53.57,-3.882 74.801,-14.687 21.23,-10.805 33.558,-28.461 43.906,-45.582 10.348,-17.121 18.719,-33.711 21.688,-45.809 2.968,-12.097 0.531,-19.707 -16.055,-24.578 -16.59,-4.871 -47.332,-7 -79.902,13.848 z"
             style="fill:none;stroke:#1e1eb2;stroke-width:0.75;stroke-linecap:butt;stroke-linejoin:miter;stroke-miterlimit:4;stroke-dasharray:none;stroke-opacity:1"
             id="path366" />
        </g>
      </g>
    </g>
    <path
       d="m 107.90865,150.21692 c 0,-3.516 2.848,-6.363 6.356,-6.363 3.511,0 6.363,2.847 6.363,6.363 0,3.512 -2.852,6.356 -6.363,6.356 -3.508,0 -6.356,-2.844 -6.356,-6.356 z"
       style="fill:none;fill-opacity:1;fill-rule:evenodd;stroke:#000000;stroke-width:1;stroke-linecap:butt;stroke-linejoin:miter;stroke-miterlimit:4;stroke-dasharray:none;stroke-opacity:1"
       id="path256-2-9" />
    <path
       d="m 125.31373,136.97392 c 0,-3.516 2.848,-6.363 6.356,-6.363 3.511,0 6.363,2.847 6.363,6.363 0,3.512 -2.852,6.356 -6.363,6.356 -3.508,0 -6.356,-2.844 -6.356,-6.356 z"
       style="fill:none;fill-opacity:1;fill-rule:evenodd;stroke:#000000;stroke-width:1;stroke-linecap:butt;stroke-linejoin:miter;stroke-miterlimit:4;stroke-dasharray:none;stroke-opacity:1"
       id="path256-2-0" />
    <path
       d="m 44.720639,86.272159 c 0,-3.516 2.848,-6.363 6.356,-6.363 3.511,0 6.363,2.847 6.363,6.363 0,3.512 -2.852,6.356 -6.363,6.356 -3.508,0 -6.356,-2.844 -6.356,-6.356 z"
       style="fill:none;fill-opacity:1;fill-rule:evenodd;stroke:#000000;stroke-width:1;stroke-linecap:butt;stroke-linejoin:miter;stroke-miterlimit:4;stroke-dasharray:none;stroke-opacity:1"
       id="path256-2-2" />
    <ellipse
       style="fill:#ffffff;fill-rule:evenodd;stroke:none;stroke-width:0.447;stroke-miterlimit:0.8;stroke-dasharray:1.78687, 0.893438;paint-order:markers fill stroke;fill-opacity:1"
       id="path2294"
       cx="100.07922"
       cy="164.21317"
       rx="6.432313"
       ry="6.9998703" />
  </g>
</svg>
