<?xml version="1.0" encoding="UTF-8" standalone="no"?>
<!-- Created with Inkscape (http://www.inkscape.org/) -->

<svg
   version="1.1"
   id="svg132"
   width="212.89885"
   height="154.83643"
   viewBox="0 0 212.89885 154.83643"
   sodipodi:docname="properties-2.svg"
   inkscape:version="1.2.2 (b0a84865, 2022-12-01)"
   xmlns:inkscape="http://www.inkscape.org/namespaces/inkscape"
   xmlns:sodipodi="http://sodipodi.sourceforge.net/DTD/sodipodi-0.dtd"
   xmlns="http://www.w3.org/2000/svg"
   xmlns:svg="http://www.w3.org/2000/svg">
  <defs
     id="defs136" />
  <sodipodi:namedview
     id="namedview134"
     pagecolor="#ffffff"
     bordercolor="#666666"
     borderopacity="1.0"
     inkscape:showpageshadow="2"
     inkscape:pageopacity="0.0"
     inkscape:pagecheckerboard="0"
     inkscape:deskcolor="#d1d1d1"
     showgrid="false"
     inkscape:zoom="1.3959842"
     inkscape:cx="194.12827"
     inkscape:cy="121.06154"
     inkscape:window-width="1440"
     inkscape:window-height="730"
     inkscape:window-x="-115"
     inkscape:window-y="771"
     inkscape:window-maximized="0"
     inkscape:current-layer="g142">
    <inkscape:page
       x="0"
       y="0"
       id="page138"
       width="212.89885"
       height="154.83643" />
  </sodipodi:namedview>
  <g
     id="g140"
     inkscape:groupmode="layer"
     inkscape:label="Page 1"
     transform="matrix(1.3333333,0,0,1.3333333,0,8.5375773e-6)">
    <g
       id="g142">
      <g
         id="g144"
         transform="scale(1,0.989824)">
        <path
           d="m 76.977,20.924 c 0,-11.346 9.195,-20.541 20.539,-20.541 h 41.238 c 11.344,0 20.535,9.195 20.535,20.541 v 5.426 c 0,11.342 -9.191,20.541 -20.535,20.541 H 97.516 c -11.344,0 -20.539,-9.199 -20.539,-20.541 z"
           style="fill:#ffffff;fill-opacity:1;fill-rule:nonzero;stroke:#000000;stroke-width:0.766727;stroke-linecap:butt;stroke-linejoin:miter;stroke-miterlimit:8;stroke-dasharray:none;stroke-opacity:1"
           id="path146" />
      </g>
      <g
         id="g148">
        <path
           d="m 79.762,17.176 c 0,-3.516 2.843,-6.367 6.355,-6.367 3.512,0 6.36,2.851 6.36,6.367 0,3.512 -2.848,6.359 -6.36,6.359 -3.512,0 -6.355,-2.847 -6.355,-6.359 z"
           style="fill:#ffffff;fill-opacity:1;fill-rule:evenodd;stroke:#88aa00;stroke-width:1;stroke-linecap:butt;stroke-linejoin:miter;stroke-miterlimit:4;stroke-dasharray:none;stroke-opacity:1"
           id="path150" />
      </g>
      <text
         xml:space="preserve"
         transform="matrix(1,0,0,0.99983406,83.528266,19.57967)"
         style="font-variant:normal;font-weight:normal;font-size:6.62272px;font-family:Verdana;-inkscape-font-specification:Verdana;writing-mode:lr-tb;fill:#000000;fill-opacity:1;fill-rule:nonzero;stroke:none"
         id="text154"><tspan
           x="0"
           y="0"
           id="tspan152">K</tspan></text>
      <g
         id="g156">
        <path
           d="m 109.043,30.703 c 0,-3.515 2.844,-6.363 6.355,-6.363 3.512,0 6.36,2.848 6.36,6.363 0,3.512 -2.848,6.356 -6.36,6.356 -3.511,0 -6.355,-2.844 -6.355,-6.356 z"
           style="fill:#ffffff;fill-opacity:1;fill-rule:evenodd;stroke:#000000;stroke-width:1;stroke-linecap:butt;stroke-linejoin:miter;stroke-miterlimit:4;stroke-dasharray:none;stroke-opacity:1"
           id="path158" />
      </g>
      <text
         xml:space="preserve"
         transform="matrix(1,0,0,0.99983406,113.0312,33.107513)"
         style="font-variant:normal;font-weight:normal;font-size:6.62272px;font-family:Verdana;-inkscape-font-specification:Verdana;writing-mode:lr-tb;fill:#000000;fill-opacity:1;fill-rule:nonzero;stroke:none"
         id="text162"><tspan
           x="0"
           y="0"
           id="tspan160">C</tspan></text>
      <g
         id="g164"
         transform="scale(1,0.989824)">
        <path
           d="m 12.695,85.901 c 0,-11.164 9.051,-20.217 20.219,-20.217 h 40.59 c 11.168,0 20.219,9.053 20.219,20.217 v 5.344 c 0,11.164 -9.051,20.217 -20.219,20.217 h -40.59 c -11.168,0 -20.219,-9.053 -20.219,-20.217 z"
           style="fill:#ffffff;fill-opacity:1;fill-rule:nonzero;stroke:#000000;stroke-width:0.754727;stroke-linecap:butt;stroke-linejoin:miter;stroke-miterlimit:8;stroke-dasharray:none;stroke-opacity:1"
           id="path166" />
      </g>
      <g
         id="g168">
        <path
           d="m 59.461,89.562 c 0,-3.507 2.844,-6.355 6.355,-6.355 3.512,0 6.36,2.848 6.36,6.355 0,3.52 -2.848,6.368 -6.36,6.368 -3.511,0 -6.355,-2.848 -6.355,-6.368 z"
           style="fill:#ffffff;fill-opacity:1;fill-rule:evenodd;stroke:#000000;stroke-width:1;stroke-linecap:butt;stroke-linejoin:miter;stroke-miterlimit:4;stroke-dasharray:none;stroke-opacity:1"
           id="path170" />
      </g>
      <g
         id="g172">
        <path
           d="m 72.891,78.168 c 0,-3.512 2.843,-6.359 6.355,-6.359 3.512,0 6.359,2.847 6.359,6.359 0,3.516 -2.847,6.363 -6.359,6.363 -3.512,0 -6.355,-2.847 -6.355,-6.363 z"
           style="fill:#ffffff;fill-opacity:1;fill-rule:evenodd;stroke:#000000;stroke-width:1;stroke-linecap:butt;stroke-linejoin:miter;stroke-miterlimit:4;stroke-dasharray:none;stroke-opacity:1"
           id="path174" />
      </g>
      <text
         xml:space="preserve"
         transform="matrix(1,0,0,0.99983406,63.780672,91.972988)"
         style="font-variant:normal;font-weight:normal;font-size:6.62272px;font-family:Verdana;-inkscape-font-specification:Verdana;writing-mode:lr-tb;fill:#000000;fill-opacity:1;fill-rule:nonzero;stroke:none"
         id="text178"><tspan
           x="0"
           y="0"
           id="tspan176">Y</tspan></text>
      <text
         xml:space="preserve"
         transform="matrix(1,0,0,0.99983406,49.195195,103.52079)"
         style="font-variant:normal;font-weight:normal;font-size:6.62272px;font-family:Verdana;-inkscape-font-specification:Verdana;writing-mode:lr-tb;fill:#000000;fill-opacity:1;fill-rule:nonzero;stroke:none"
         id="text190"><tspan
           x="27.021151"
           y="-23.227339"
           id="tspan188">C</tspan></text>
      <g
         id="g192">
        <path
           d="m 29.562,74.891 c 0,-3.512 2.844,-6.36 6.356,-6.36 3.512,0 6.359,2.848 6.359,6.36 0,3.515 -2.847,6.363 -6.359,6.363 -3.512,0 -6.356,-2.848 -6.356,-6.363 z"
           style="fill:#ffffff;fill-opacity:1;fill-rule:evenodd;stroke:#88aa00;stroke-width:1;stroke-linecap:butt;stroke-linejoin:miter;stroke-miterlimit:4;stroke-dasharray:none;stroke-opacity:1"
           id="path194" />
      </g>
      <text
         xml:space="preserve"
         transform="matrix(1,0,0,0.99983406,33.955397,77.275819)"
         style="font-variant:normal;font-weight:normal;font-size:6.62272px;font-family:Verdana;-inkscape-font-specification:Verdana;writing-mode:lr-tb;fill:#000000;fill-opacity:1;fill-rule:nonzero;stroke:none"
         id="text198"><tspan
           x="0"
           y="0"
           id="tspan196">P</tspan></text>
      <g
         id="g200">
        <path
           d="m 126.738,36.793 c 0,-3.512 2.844,-6.359 6.356,-6.359 3.511,0 6.359,2.847 6.359,6.359 0,3.516 -2.848,6.363 -6.359,6.363 -3.512,0 -6.356,-2.847 -6.356,-6.363 z"
           style="fill:#ffffff;fill-opacity:1;fill-rule:evenodd;stroke:#000000;stroke-width:1;stroke-linecap:butt;stroke-linejoin:miter;stroke-miterlimit:4;stroke-dasharray:none;stroke-opacity:1"
           id="path202" />
      </g>
      <text
         xml:space="preserve"
         transform="matrix(1,0,0,0.99983406,131.20919,39.174563)"
         style="font-variant:normal;font-weight:normal;font-size:6.62272px;font-family:Verdana;-inkscape-font-specification:Verdana;writing-mode:lr-tb;fill:#000000;fill-opacity:1;fill-rule:nonzero;stroke:none"
         id="text206"><tspan
           x="0"
           y="0"
           id="tspan204">Y</tspan></text>
      <g
         id="g208">
        <path
           d="m 83.559,72.215 c 0,0 27.117,-35.653 27.117,-35.653"
           style="fill:none;stroke:#000000;stroke-width:0.749999;stroke-linecap:butt;stroke-linejoin:miter;stroke-miterlimit:4;stroke-dasharray:2.99999, 2.99999;stroke-dashoffset:0;stroke-opacity:1"
           id="path210" />
      </g>
      <g
         id="g212">
        <path
           d="M 75.242,93.688 133.406,41.941"
           style="fill:none;stroke:#000000;stroke-width:0.749999;stroke-linecap:butt;stroke-linejoin:miter;stroke-miterlimit:4;stroke-dasharray:2.99999, 2.99999;stroke-dashoffset:0;stroke-opacity:1"
           id="path214" />
      </g>
      <g
         id="g216"
         transform="matrix(0.760603,-1,1,0.760603,0,0)">
        <path
           d="m -3.845,85.94 -1.79,1.791 1.791,1.79"
           style="fill:none;stroke:#000000;stroke-width:0.596947;stroke-linecap:butt;stroke-linejoin:miter;stroke-miterlimit:4;stroke-dasharray:none;stroke-opacity:1"
           id="path218" />
      </g>
      <g
         id="g220"
         transform="matrix(1,-0.487964,0.487964,1,0,0)">
        <path
           d="m 24.068,102.92 -2.022,2.021 2.022,2.022"
           style="fill:none;stroke:#000000;stroke-width:0.674033;stroke-linecap:butt;stroke-linejoin:miter;stroke-miterlimit:4;stroke-dasharray:none;stroke-opacity:1"
           id="path222" />
      </g>
      <text
         xml:space="preserve"
         transform="translate(60.452306,45.178425)"
         style="font-style:italic;font-variant:normal;font-size:9px;font-family:Arial;-inkscape-font-specification:Arial-ItalicMT;writing-mode:lr-tb;fill:#000000;fill-opacity:1;fill-rule:nonzero;stroke:none"
         id="text228"><tspan
           x="0 7.0004883 9.9975586 15.00293"
           y="0"
           sodipodi:role="line"
           id="tspan224">Org1</tspan><tspan
           x="-61.27409 -54.273602 -51.276531 -46.27116"
           y="69.081223"
           sodipodi:role="line"
           id="tspan226">Org2</tspan></text>
    </g>
  </g>
</svg>
